<?xml version="1.0" encoding="UTF-8"?>
<svg version="1.1" xmlns="http://www.w3.org/2000/svg" width="167" height="150">
<path d="M0 0 C55.11 0 110.22 0 167 0 C167 49.5 167 99 167 150 C111.89 150 56.78 150 0 150 C0 100.5 0 51 0 0 Z " fill="#FDFDFD" transform="translate(0,0)"/>
<path d="M0 0 C18.81 0 37.62 0 57 0 C57 18.48 57 36.96 57 56 C38.19 56 19.38 56 0 56 C0 37.52 0 19.04 0 0 Z " fill="#5E609A" transform="translate(53,49)"/>
<path d="M0 0 C2.64 0 5.28 0 8 0 C9 1 9 1 9.11352539 2.85766602 C9.10828857 3.64842529 9.10305176 4.43918457 9.09765625 5.25390625 C9.09443359 6.10791016 9.09121094 6.96191406 9.08789062 7.84179688 C9.07951172 8.73962891 9.07113281 9.63746094 9.0625 10.5625 C9.05798828 11.46419922 9.05347656 12.36589844 9.04882812 13.29492188 C9.03700244 15.52997589 9.01906638 17.76499602 9 20 C6.03 20 3.06 20 0 20 C0 13.4 0 6.8 0 0 Z " fill="#7574A6" transform="translate(101,113)"/>
<path d="M0 0 C2.64 0 5.28 0 8 0 C9 1 9 1 9.11352539 2.85766602 C9.10828857 3.64842529 9.10305176 4.43918457 9.09765625 5.25390625 C9.09443359 6.10791016 9.09121094 6.96191406 9.08789062 7.84179688 C9.07951172 8.73962891 9.07113281 9.63746094 9.0625 10.5625 C9.05798828 11.46419922 9.05347656 12.36589844 9.04882812 13.29492188 C9.03700244 15.52997589 9.01906638 17.76499602 9 20 C6.03 20 3.06 20 0 20 C0 13.4 0 6.8 0 0 Z " fill="#7776A5" transform="translate(85,113)"/>
<path d="M0 0 C2.97 0 5.94 0 9 0 C9 6.27 9 12.54 9 19 C6.03 19 3.06 19 0 19 C0 12.73 0 6.46 0 0 Z " fill="#7B78AA" transform="translate(85,22)"/>
<path d="M0 0 C5.94 0 11.88 0 18 0 C18 2.97 18 5.94 18 9 C12.06 9 6.12 9 0 9 C0 6.03 0 3.06 0 0 Z " fill="#5F5E9D" transform="translate(118,81)"/>
<path d="M0 0 C6 0 6 0 8 1 C8 7.27 8 13.54 8 20 C5.36 20 2.72 20 0 20 C0 13.4 0 6.8 0 0 Z " fill="#716F94" transform="translate(69,113)"/>
<path d="M0 0 C2.64 0 5.28 0 8 0 C8 6.27 8 12.54 8 19 C5.36 19 2.72 19 0 19 C0 12.73 0 6.46 0 0 Z " fill="#69639F" transform="translate(53,114)"/>
<path d="M0 0 C6.27 0 12.54 0 19 0 C19 2.64 19 5.28 19 8 C12.73 8 6.46 8 0 8 C0 5.36 0 2.72 0 0 Z " fill="#55538A" transform="translate(26,81)"/>
<path d="M0 0 C6.27 0 12.54 0 19 0 C19 2.64 19 5.28 19 8 C12.73 8 6.46 8 0 8 C0 5.36 0 2.72 0 0 Z " fill="#6564A7" transform="translate(26,65)"/>
<path d="M0 0 C6.27 0 12.54 0 19 0 C19 2.64 19 5.28 19 8 C12.73 8 6.46 8 0 8 C0 5.36 0 2.72 0 0 Z " fill="#6869AF" transform="translate(26,49)"/>
<path d="M0 0 C2.64 0 5.28 0 8 0 C8 6.27 8 12.54 8 19 C5.36 19 2.72 19 0 19 C0 12.73 0 6.46 0 0 Z " fill="#6D6CA6" transform="translate(102,22)"/>
<path d="M0 0 C2.64 0 5.28 0 8 0 C8 6.27 8 12.54 8 19 C5.36 19 2.72 19 0 19 C0 12.73 0 6.46 0 0 Z " fill="#65629B" transform="translate(69,22)"/>
<path d="M0 0 C2.64 0 5.28 0 8 0 C8 6.27 8 12.54 8 19 C5.36 19 2.72 19 0 19 C0 12.73 0 6.46 0 0 Z " fill="#605F9C" transform="translate(53,22)"/>
<path d="M0 0 C5.94 0 11.88 0 18 0 C18 2.64 18 5.28 18 8 C12.06 8 6.12 8 0 8 C0 5.36 0 2.72 0 0 Z " fill="#4F4F80" transform="translate(118,98)"/>
<path d="M0 0 C5.94 0 11.88 0 18 0 C18 2.64 18 5.28 18 8 C12.06 8 6.12 8 0 8 C0 5.36 0 2.72 0 0 Z " fill="#605FA5" transform="translate(118,65)"/>
<path d="M0 0 C5.94 0 11.88 0 18 0 C18 2.64 18 5.28 18 8 C12.06 8 6.12 8 0 8 C0 5.36 0 2.72 0 0 Z " fill="#60619C" transform="translate(118,49)"/>
<path d="M0 0 C5.94 0 11.88 0 18 0 C18 2.31 18 4.62 18 7 C12.06 7 6.12 7 0 7 C0 4.69 0 2.38 0 0 Z " fill="#56568B" transform="translate(26,98)"/>
<path d="M0 0 C1.32 0 2.64 0 4 0 C5.32286246 4.96073422 5.08893197 9.91111512 5 15 C3.35 15.33 1.7 15.66 0 16 C0 10.72 0 5.44 0 0 Z " fill="#6867A2" transform="translate(71,115)"/>
<path d="M0 0 C6.27 0 12.54 0 19 0 C19 2.64 19 5.28 19 8 C16.36 8 13.72 8 11 8 C11 7.67 11 7.34 11 7 C12.98 7 14.96 7 17 7 C17 5.35 17 3.7 17 2 C12.05 2.33 7.1 2.66 2 3 C1.67 3.99 1.34 4.98 1 6 C0.67 6 0.34 6 0 6 C0 4.02 0 2.04 0 0 Z " fill="#686792" transform="translate(26,65)"/>
<path d="M0 0 C5.94 0 11.88 0 18 0 C17.67 1.32 17.34 2.64 17 4 C17 3.34 17 2.68 17 2 C12.05 2.33 7.1 2.66 2 3 C1.67 4.32 1.34 5.64 1 7 C6.61 7.33 12.22 7.66 18 8 C18 8.33 18 8.66 18 9 C12.06 9 6.12 9 0 9 C0 6.03 0 3.06 0 0 Z " fill="#76769E" transform="translate(118,81)"/>
<path d="M0 0 C2.64 0 5.28 0 8 0 C8 1.65 8 3.3 8 5 C10.97 5.33 13.94 5.66 17 6 C17 6.33 17 6.66 17 7 C11.06 7 5.12 7 -1 7 C-0.67 4.69 -0.34 2.38 0 0 Z " fill="#6B6B9D" transform="translate(119,99)"/>
<path d="M0 0 C5.94 0 11.88 0 18 0 C18 2.64 18 5.28 18 8 C17.01 7.67 16.02 7.34 15 7 C15.66 7 16.32 7 17 7 C16.67 5.68 16.34 4.36 16 3 C9.07 2.505 9.07 2.505 2 2 C1.67 3.65 1.34 5.3 1 7 C1.66 7.33 2.32 7.66 3 8 C2.01 8 1.02 8 0 8 C0 5.36 0 2.72 0 0 Z " fill="#5C5B8E" transform="translate(118,65)"/>
<path d="M0 0 C6.27 0 12.54 0 19 0 C19 2.64 19 5.28 19 8 C16.36 7.67 13.72 7.34 11 7 C11 5.35 11 3.7 11 2 C12.4540625 2.0309375 12.4540625 2.0309375 13.9375 2.0625 C16.87465895 2.35618499 16.87465895 2.35618499 18 1 C12.06 1 6.12 1 0 1 C0 0.67 0 0.34 0 0 Z " fill="#7574A4" transform="translate(26,81)"/>
<path d="M0 0 C0 2.64 0 5.28 0 8 C-6.27 8 -12.54 8 -19 8 C-19 7.67 -19 7.34 -19 7 C-13.39 7 -7.78 7 -2 7 C-2.66 5.35 -3.32 3.7 -4 2 C-7.3 2 -10.6 2 -14 2 C-14 1.67 -14 1.34 -14 1 C-9.32798795 -0.20568053 -4.78503708 -0.09382426 0 0 Z " fill="#7171A0" transform="translate(45,49)"/>
<path d="M0 0 C2.64 0 5.28 0 8 0 C8 0.99 8 1.98 8 3 C6.35 3 4.7 3 3 3 C2.97307516 5.29160319 2.95363876 7.58329546 2.9375 9.875 C2.92589844 11.15117188 2.91429688 12.42734375 2.90234375 13.7421875 C2.76823431 16.88664652 2.76823431 16.88664652 4 19 C2.68 19 1.36 19 0 19 C0 12.73 0 6.46 0 0 Z " fill="#726D93" transform="translate(69,22)"/>
<path d="M0 0 C0.33 0 0.66 0 1 0 C1 6.27 1 12.54 1 19 C-1.64 19 -4.28 19 -7 19 C-7 13.72 -7 8.44 -7 3 C-6.67 3 -6.34 3 -6 3 C-5.67 7.62 -5.34 12.24 -5 17 C-3.68 17 -2.36 17 -1 17 C-0.67 11.39 -0.34 5.78 0 0 Z " fill="#757297" transform="translate(60,114)"/>
<path d="M0 0 C2.31 0 4.62 0 7 0 C7 5.94 7 11.88 7 18 C6.67 18 6.34 18 6 18 C6 12.72 6 7.44 6 2 C4.02 2.99 4.02 2.99 2 4 C2 8.62 2 13.24 2 18 C1.34 18 0.68 18 0 18 C0 12.06 0 6.12 0 0 Z " fill="#4F4C80" transform="translate(102,22)"/>
<path d="M0 0 C2.31 0 4.62 0 7 0 C7 5.94 7 11.88 7 18 C6.67 18 6.34 18 6 18 C5.67 13.05 5.34 8.1 5 3 C4.01 3 3.02 3 2 3 C2 7.95 2 12.9 2 18 C1.34 18 0.68 18 0 18 C0 12.06 0 6.12 0 0 Z " fill="#565281" transform="translate(86,22)"/>
<path d="M0 0 C0.33 0 0.66 0 1 0 C1 6.27 1 12.54 1 19 C-1.64 19 -4.28 19 -7 19 C-7 13.72 -7 8.44 -7 3 C-6.67 3 -6.34 3 -6 3 C-6 7.95 -6 12.9 -6 18 C-5.34 18 -4.68 18 -4 18 C-3.67 17.34 -3.34 16.68 -3 16 C-2.34 16 -1.68 16 -1 16 C-0.67 10.72 -0.34 5.44 0 0 Z " fill="#74729A" transform="translate(60,22)"/>
<path d="M0 0 C3.3 0 6.6 0 10 0 C8.68 0.99 7.36 1.98 6 3 C5.67 3.66 5.34 4.32 5 5 C5.99 5.66 6.98 6.32 8 7 C5.36 7 2.72 7 0 7 C0 4.69 0 2.38 0 0 Z " fill="#616195" transform="translate(26,49)"/>
<path d="M0 0 C2.31 0 4.62 0 7 0 C6.67 0.99 6.34 1.98 6 3 C5.01 3.33 4.02 3.66 3 4 C2.67 8.62 2.34 13.24 2 18 C1.67 18 1.34 18 1 18 C0.67 12.06 0.34 6.12 0 0 Z " fill="#585583" transform="translate(53,22)"/>
<path d="M0 0 C2.31 0 4.62 0 7 0 C7 4.62 7 9.24 7 14 C6.67 14 6.34 14 6 14 C6 10.37 6 6.74 6 3 C4.02 3 2.04 3 0 3 C0 2.01 0 1.02 0 0 Z " fill="#5C578A" transform="translate(53,114)"/>
<path d="M0 0 C2.31 0.33 4.62 0.66 7 1 C7 1.99 7 2.98 7 4 C4.36 4 1.72 4 -1 4 C-0.67 2.68 -0.34 1.36 0 0 Z " fill="#6561A9" transform="translate(28,84)"/>
<path d="M0 0 C2.475 0.495 2.475 0.495 5 1 C5 2.32 5 3.64 5 5 C3.35 5 1.7 5 0 5 C0 3.35 0 1.7 0 0 Z " fill="#60619D" transform="translate(129,99)"/>
<path d="M0 0 C0.66 0 1.32 0 2 0 C2 1.32 2 2.64 2 4 C4.31 4 6.62 4 9 4 C9 4.33 9 4.66 9 5 C5.37 5 1.74 5 -2 5 C-1.34 3.35 -0.68 1.7 0 0 Z " fill="#69689A" transform="translate(28,68)"/>
<path d="M0 0 C0.33 0.99 0.66 1.98 1 3 C-1.31 3.33 -3.62 3.66 -6 4 C-6 3.01 -6 2.02 -6 1 C-4.02 0.67 -2.04 0.34 0 0 Z " fill="#6064A9" transform="translate(38,50)"/>
<path d="M0 0 C0 0.99 0 1.98 0 3 C-1.98 3 -3.96 3 -6 3 C-6 2.01 -6 1.02 -6 0 C-2.25 -1.125 -2.25 -1.125 0 0 Z " fill="#6362A1" transform="translate(43,101)"/>
<path d="M0 0 C2.31 0 4.62 0 7 0 C7 0.99 7 1.98 7 3 C4.69 3 2.38 3 0 3 C0 2.01 0 1.02 0 0 Z " fill="#54527B" transform="translate(70,22)"/>
</svg>
